<svg xmlns="http://www.w3.org/2000/svg" width="390" height="844" viewBox="0 0 390 844">
<defs><radialGradient id="g"><stop offset="0%" stop-color="#EFE9FF" stop-opacity=".95"/><stop offset="35%" stop-color="#6E5BFF" stop-opacity=".45"/><stop offset="100%" stop-color="#6E5BFF" stop-opacity="0"/></radialGradient>
<radialGradient id="ga"><stop offset="0%" stop-color="#EFE9FF" stop-opacity=".95"/><stop offset="35%" stop-color="#B48CFF" stop-opacity=".5"/><stop offset="100%" stop-color="#B48CFF" stop-opacity="0"/></radialGradient></defs>
<rect width="390" height="844" fill="#070312"/>
<text x="26" y="54" font-family="Georgia, serif" font-size="21" fill="#E8E4F6" letter-spacing="4" text-anchor="start" opacity="1">DEEP FIELD</text>
<text x="26" y="76" font-family="Menlo, 'SF Mono', monospace" font-size="9" fill="#B48CFF" letter-spacing="1.6" text-anchor="start" opacity="1">JWST ultraviolet · spectral depth</text>
<rect x="26" y="96" rx="6" width="56" height="30" fill="#070312" stroke="#E8E4F6" stroke-opacity=".25"/><text x="26" y="140" font-family="Menlo, 'SF Mono', monospace" font-size="6.5" fill="#E8E4F6" letter-spacing="1" text-anchor="start" opacity="0.6">VOID</text>
<text x="26" y="151" font-family="Menlo, 'SF Mono', monospace" font-size="6.5" fill="#E8E4F6" letter-spacing="0.4" text-anchor="start" opacity="0.4">#070312</text>
<rect x="96" y="96" rx="6" width="56" height="30" fill="#6E5BFF" stroke="none" stroke-opacity=".25"/><text x="96" y="140" font-family="Menlo, 'SF Mono', monospace" font-size="6.5" fill="#E8E4F6" letter-spacing="1" text-anchor="start" opacity="0.6">FILAMENT</text>
<text x="96" y="151" font-family="Menlo, 'SF Mono', monospace" font-size="6.5" fill="#E8E4F6" letter-spacing="0.4" text-anchor="start" opacity="0.4">#6E5BFF</text>
<rect x="166" y="96" rx="6" width="56" height="30" fill="#EFE9FF" stroke="none" stroke-opacity=".25"/><text x="166" y="140" font-family="Menlo, 'SF Mono', monospace" font-size="6.5" fill="#E8E4F6" letter-spacing="1" text-anchor="start" opacity="0.6">HOT</text>
<text x="166" y="151" font-family="Menlo, 'SF Mono', monospace" font-size="6.5" fill="#E8E4F6" letter-spacing="0.4" text-anchor="start" opacity="0.4">#EFE9FF</text>
<rect x="236" y="96" rx="6" width="56" height="30" fill="#2A2354" stroke="none" stroke-opacity=".25"/><text x="236" y="140" font-family="Menlo, 'SF Mono', monospace" font-size="6.5" fill="#E8E4F6" letter-spacing="1" text-anchor="start" opacity="0.6">DIM</text>
<text x="236" y="151" font-family="Menlo, 'SF Mono', monospace" font-size="6.5" fill="#E8E4F6" letter-spacing="0.4" text-anchor="start" opacity="0.4">#2A2354</text>
<rect x="306" y="96" rx="6" width="56" height="30" fill="#B48CFF" stroke="none" stroke-opacity=".25"/><text x="306" y="140" font-family="Menlo, 'SF Mono', monospace" font-size="6.5" fill="#E8E4F6" letter-spacing="1" text-anchor="start" opacity="0.6">ACCENT</text>
<text x="306" y="151" font-family="Menlo, 'SF Mono', monospace" font-size="6.5" fill="#E8E4F6" letter-spacing="0.4" text-anchor="start" opacity="0.4">#B48CFF</text>
<text x="26" y="186" font-family="Georgia, serif" font-size="17" fill="#E8E4F6" letter-spacing="0.3" text-anchor="start" opacity="1">She accepts the terms</text>
<text x="26" y="205" font-family="Menlo, 'SF Mono', monospace" font-size="7.5" fill="#E8E4F6" letter-spacing="0.8" text-anchor="start" opacity="0.5">Light serif italic titles  ·  Space Mono</text>
<line x1="26" y1="222" x2="364" y2="222" stroke="#E8E4F6" stroke-opacity=".12" stroke-width=".6"/><path d="M195 650 Q151 590 88 550" stroke="#B48CFF" stroke-width="2.4" fill="none" opacity="0.95" stroke-linecap="round"/>
<path d="M88 550 Q83 492 52 442" stroke="#B48CFF" stroke-width="2.0" fill="none" opacity="0.9" stroke-linecap="round"/>
<circle cx="52" cy="442" r="9" fill="url(#ga)" opacity="1.00"/><circle cx="52" cy="442" r="3" fill="#B48CFF" opacity="1.00"/>
<path d="M88 550 Q118 493 120 428" stroke="#6E5BFF" stroke-width="1.0" fill="none" opacity="0.35" stroke-linecap="round"/>
<circle cx="120" cy="428" r="9" fill="url(#g)" opacity="0.70"/><circle cx="120" cy="428" r="3" fill="#6E5BFF" opacity="0.80"/>
<circle cx="88" cy="550" r="13.200000000000001" fill="url(#ga)" opacity="1.00"/><circle cx="88" cy="550" r="4.4" fill="#B48CFF" opacity="1.00"/>
<path d="M195 650 Q191 586 160 530" stroke="#6E5BFF" stroke-width="1.3" fill="none" opacity="0.4" stroke-linecap="round"/>
<path d="M160 530 Q169 469 150 410" stroke="#6E5BFF" stroke-width="1.0" fill="none" opacity="0.35" stroke-linecap="round"/>
<circle cx="150" cy="410" r="9" fill="url(#g)" opacity="0.70"/><circle cx="150" cy="410" r="3" fill="#6E5BFF" opacity="0.80"/>
<path d="M160 530 Q192 481 198 422" stroke="#6E5BFF" stroke-width="1.0" fill="none" opacity="0.35" stroke-linecap="round"/>
<circle cx="198" cy="422" r="9" fill="url(#g)" opacity="0.70"/><circle cx="198" cy="422" r="3" fill="#6E5BFF" opacity="0.80"/>
<circle cx="160" cy="530" r="13.200000000000001" fill="url(#g)" opacity="0.80"/><circle cx="160" cy="530" r="4.4" fill="#6E5BFF" opacity="0.90"/>
<path d="M195 650 Q235 600 250 538" stroke="#6E5BFF" stroke-width="1.3" fill="none" opacity="0.4" stroke-linecap="round"/>
<path d="M250 538 Q262 479 246 420" stroke="#6E5BFF" stroke-width="1.0" fill="none" opacity="0.35" stroke-linecap="round"/>
<circle cx="246" cy="420" r="9" fill="url(#g)" opacity="0.70"/><circle cx="246" cy="420" r="3" fill="#6E5BFF" opacity="0.80"/>
<path d="M250 538 Q284 492 292 436" stroke="#6E5BFF" stroke-width="1.0" fill="none" opacity="0.35" stroke-linecap="round"/>
<circle cx="292" cy="436" r="9" fill="url(#g)" opacity="0.70"/><circle cx="292" cy="436" r="3" fill="#6E5BFF" opacity="0.80"/>
<circle cx="250" cy="538" r="13.200000000000001" fill="url(#g)" opacity="0.80"/><circle cx="250" cy="538" r="4.4" fill="#6E5BFF" opacity="0.90"/>
<path d="M195 650 Q264 617 316 562" stroke="#6E5BFF" stroke-width="1.3" fill="none" opacity="0.4" stroke-linecap="round"/>
<path d="M316 562 Q337 513 330 460" stroke="#6E5BFF" stroke-width="1.0" fill="none" opacity="0.35" stroke-linecap="round"/>
<circle cx="330" cy="460" r="9" fill="url(#g)" opacity="0.70"/><circle cx="330" cy="460" r="3" fill="#6E5BFF" opacity="0.80"/>
<circle cx="316" cy="562" r="13.200000000000001" fill="url(#g)" opacity="0.80"/><circle cx="316" cy="562" r="4.4" fill="#6E5BFF" opacity="0.90"/>
<circle cx="195" cy="650" r="18" fill="url(#g)" opacity="1.00"/><circle cx="195" cy="650" r="6" fill="#6E5BFF" opacity="1.00"/>
<text x="26" y="702" font-family="Menlo, 'SF Mono', monospace" font-size="7.5" fill="#B48CFF" letter-spacing="3" text-anchor="start" opacity="1">DECISION</text>
<text x="26" y="724" font-family="Georgia, serif" font-size="18" fill="#E8E4F6" letter-spacing="0.3" text-anchor="start" opacity="1">She accepts the terms</text>
<text x="26" y="744" font-family="Menlo, 'SF Mono', monospace" font-size="9.5" fill="#E8E4F6" letter-spacing="0.3" text-anchor="start" opacity="0.8">Confirm scope in writing before the kickoff call.</text>
<text x="26" y="766" font-family="Menlo, 'SF Mono', monospace" font-size="12" fill="#B48CFF" letter-spacing="1" text-anchor="start" opacity="1">EV ≈ +$12k</text>
<text x="118" y="766" font-family="Menlo, 'SF Mono', monospace" font-size="8" fill="#E8E4F6" letter-spacing="1.6" text-anchor="start" opacity="0.45">▸ DISTRIBUTION</text>
<text x="26" y="790" font-family="Menlo, 'SF Mono', monospace" font-size="7.6" fill="#E8E4F6" letter-spacing="0.4" text-anchor="start" opacity="0.55">Indigo→violet spectral ramp encodes depth itself: near</text>
<text x="26" y="802" font-family="Menlo, 'SF Mono', monospace" font-size="7.6" fill="#E8E4F6" letter-spacing="0.4" text-anchor="start" opacity="0.55">branches warm violet, far branches cool indigo, cores</text>
<text x="26" y="814" font-family="Menlo, 'SF Mono', monospace" font-size="7.6" fill="#E8E4F6" letter-spacing="0.4" text-anchor="start" opacity="0.55">white-hot. The one alt that keeps 'cosmic' and earns it</text>
<text x="26" y="826" font-family="Menlo, 'SF Mono', monospace" font-size="7.6" fill="#E8E4F6" letter-spacing="0.4" text-anchor="start" opacity="0.55">through restraint.</text>
</svg>