<svg xmlns="http://www.w3.org/2000/svg" width="390" height="844" viewBox="0 0 390 844">
<title>Home — empty</title>
<defs>
  <radialGradient id="glow"><stop offset="0%" stop-color="#fff" stop-opacity=".95"/><stop offset="30%" stop-color="#FFD98A" stop-opacity=".5"/><stop offset="100%" stop-color="#FFD98A" stop-opacity="0"/></radialGradient>
  <radialGradient id="glowB"><stop offset="0%" stop-color="#fff" stop-opacity=".9"/><stop offset="30%" stop-color="#6DB8FF" stop-opacity=".5"/><stop offset="100%" stop-color="#6DB8FF" stop-opacity="0"/></radialGradient>
  <radialGradient id="glowE"><stop offset="0%" stop-color="#fff" stop-opacity=".9"/><stop offset="30%" stop-color="#FF6B5E" stop-opacity=".5"/><stop offset="100%" stop-color="#FF6B5E" stop-opacity="0"/></radialGradient>
  <linearGradient id="gauge" x1="0" y1="0" x2="1" y2="0"><stop offset="0%" stop-color="#FF6B5E"/><stop offset="50%" stop-color="#E8A33D"/><stop offset="100%" stop-color="#6DB8FF"/></linearGradient>
</defs>
<rect width="390" height="844" fill="#050510"/>
<circle cx="224" cy="731" r="0.5" fill="#9FB4E8" opacity="0.08"/>
<circle cx="354" cy="690" r="0.6" fill="#9FB4E8" opacity="0.09"/>
<circle cx="288" cy="794" r="0.5" fill="#9FB4E8" opacity="0.21"/>
<circle cx="344" cy="509" r="0.7" fill="#9FB4E8" opacity="0.08"/>
<circle cx="15" cy="813" r="0.6" fill="#9FB4E8" opacity="0.17"/>
<circle cx="100" cy="695" r="0.8" fill="#9FB4E8" opacity="0.11"/>
<circle cx="68" cy="608" r="0.4" fill="#9FB4E8" opacity="0.10"/>
<circle cx="218" cy="719" r="0.8" fill="#9FB4E8" opacity="0.10"/>
<circle cx="358" cy="172" r="0.4" fill="#9FB4E8" opacity="0.10"/>
<circle cx="174" cy="51" r="0.5" fill="#9FB4E8" opacity="0.12"/>
<circle cx="223" cy="111" r="0.7" fill="#9FB4E8" opacity="0.20"/>
<circle cx="382" cy="554" r="0.9" fill="#9FB4E8" opacity="0.15"/>
<circle cx="55" cy="30" r="0.4" fill="#9FB4E8" opacity="0.21"/>
<circle cx="273" cy="813" r="0.4" fill="#9FB4E8" opacity="0.16"/>
<circle cx="188" cy="617" r="0.6" fill="#9FB4E8" opacity="0.22"/>
<circle cx="29" cy="461" r="0.9" fill="#9FB4E8" opacity="0.20"/>
<circle cx="287" cy="594" r="1.0" fill="#9FB4E8" opacity="0.21"/>
<circle cx="137" cy="578" r="1.0" fill="#9FB4E8" opacity="0.20"/>
<circle cx="163" cy="667" r="1.0" fill="#9FB4E8" opacity="0.15"/>
<circle cx="244" cy="323" r="0.8" fill="#9FB4E8" opacity="0.16"/>
<circle cx="31" cy="540" r="1.1" fill="#9FB4E8" opacity="0.20"/>
<circle cx="284" cy="328" r="0.9" fill="#9FB4E8" opacity="0.15"/>
<circle cx="172" cy="708" r="0.5" fill="#9FB4E8" opacity="0.18"/>
<circle cx="12" cy="507" r="0.7" fill="#9FB4E8" opacity="0.10"/>
<circle cx="272" cy="420" r="0.8" fill="#9FB4E8" opacity="0.21"/>
<circle cx="100" cy="10" r="0.6" fill="#9FB4E8" opacity="0.17"/>
<circle cx="79" cy="143" r="1.0" fill="#9FB4E8" opacity="0.17"/>
<circle cx="172" cy="753" r="0.6" fill="#9FB4E8" opacity="0.17"/>
<circle cx="77" cy="364" r="1.0" fill="#9FB4E8" opacity="0.21"/>
<circle cx="343" cy="324" r="0.8" fill="#9FB4E8" opacity="0.11"/>
<circle cx="53" cy="419" r="1.0" fill="#9FB4E8" opacity="0.20"/>
<circle cx="277" cy="802" r="0.6" fill="#9FB4E8" opacity="0.09"/>
<circle cx="176" cy="232" r="0.5" fill="#9FB4E8" opacity="0.13"/>
<circle cx="244" cy="417" r="0.6" fill="#9FB4E8" opacity="0.19"/>
<circle cx="383" cy="382" r="0.5" fill="#9FB4E8" opacity="0.07"/>
<circle cx="340" cy="35" r="0.9" fill="#9FB4E8" opacity="0.15"/>
<circle cx="121" cy="668" r="0.4" fill="#9FB4E8" opacity="0.08"/>
<circle cx="177" cy="21" r="1.0" fill="#9FB4E8" opacity="0.10"/>
<circle cx="55" cy="40" r="0.8" fill="#9FB4E8" opacity="0.13"/>
<circle cx="246" cy="553" r="1.0" fill="#9FB4E8" opacity="0.21"/>
<circle cx="267" cy="168" r="0.7" fill="#9FB4E8" opacity="0.09"/>
<circle cx="4" cy="399" r="0.9" fill="#9FB4E8" opacity="0.09"/>
<text x="26" y="64" font-family="Menlo, 'SF Mono', 'Courier New', monospace" font-size="9.5" fill="rgba(232,163,61,.85)" letter-spacing="3" text-anchor="start" font-weight="normal" opacity="1">YOUR FUTURES</text>
<text x="364" y="66" font-family="Menlo, 'SF Mono', 'Courier New', monospace" font-size="18" fill="#FFD98A" letter-spacing="0" text-anchor="middle" font-weight="normal" opacity="1">+</text>
<circle cx="195" cy="420" r="35.2" fill="url(#glow)" opacity="1.00"/><circle cx="195" cy="420" r="11" fill="#FFD98A" opacity="1.00"/>
<circle cx="195" cy="420" r="26" fill="none" stroke="#FFD98A" stroke-opacity=".3"/><circle cx="195" cy="420" r="40" fill="none" stroke="#FFD98A" stroke-opacity=".12"/><text x="195" y="486" font-family="Menlo, 'SF Mono', 'Courier New', monospace" font-size="10" fill="rgba(220,224,240,.5)" letter-spacing="1.6" text-anchor="middle" font-weight="normal" opacity="1">begin a scenario</text>
</svg>