<svg xmlns="http://www.w3.org/2000/svg" width="390" height="844" viewBox="0 0 390 844">
<title>Canvas — node selected</title>
<defs>
  <radialGradient id="glow"><stop offset="0%" stop-color="#fff" stop-opacity=".95"/><stop offset="30%" stop-color="#FFD98A" stop-opacity=".5"/><stop offset="100%" stop-color="#FFD98A" stop-opacity="0"/></radialGradient>
  <radialGradient id="glowB"><stop offset="0%" stop-color="#fff" stop-opacity=".9"/><stop offset="30%" stop-color="#6DB8FF" stop-opacity=".5"/><stop offset="100%" stop-color="#6DB8FF" stop-opacity="0"/></radialGradient>
  <radialGradient id="glowE"><stop offset="0%" stop-color="#fff" stop-opacity=".9"/><stop offset="30%" stop-color="#FF6B5E" stop-opacity=".5"/><stop offset="100%" stop-color="#FF6B5E" stop-opacity="0"/></radialGradient>
  <linearGradient id="gauge" x1="0" y1="0" x2="1" y2="0"><stop offset="0%" stop-color="#FF6B5E"/><stop offset="50%" stop-color="#E8A33D"/><stop offset="100%" stop-color="#6DB8FF"/></linearGradient>
</defs>
<rect width="390" height="844" fill="#050510"/>
<circle cx="215" cy="435" r="0.8" fill="#9FB4E8" opacity="0.08"/>
<circle cx="72" cy="172" r="1.0" fill="#9FB4E8" opacity="0.22"/>
<circle cx="361" cy="80" r="0.4" fill="#9FB4E8" opacity="0.21"/>
<circle cx="180" cy="645" r="0.6" fill="#9FB4E8" opacity="0.13"/>
<circle cx="201" cy="363" r="0.8" fill="#9FB4E8" opacity="0.06"/>
<circle cx="273" cy="713" r="0.5" fill="#9FB4E8" opacity="0.13"/>
<circle cx="288" cy="342" r="0.5" fill="#9FB4E8" opacity="0.09"/>
<circle cx="200" cy="13" r="1.0" fill="#9FB4E8" opacity="0.19"/>
<circle cx="275" cy="726" r="0.8" fill="#9FB4E8" opacity="0.12"/>
<circle cx="234" cy="426" r="1.1" fill="#9FB4E8" opacity="0.19"/>
<circle cx="101" cy="769" r="0.9" fill="#9FB4E8" opacity="0.18"/>
<circle cx="318" cy="342" r="1.0" fill="#9FB4E8" opacity="0.20"/>
<circle cx="271" cy="648" r="0.9" fill="#9FB4E8" opacity="0.12"/>
<circle cx="282" cy="60" r="0.6" fill="#9FB4E8" opacity="0.14"/>
<circle cx="4" cy="300" r="0.8" fill="#9FB4E8" opacity="0.16"/>
<circle cx="91" cy="797" r="0.9" fill="#9FB4E8" opacity="0.11"/>
<circle cx="257" cy="481" r="0.8" fill="#9FB4E8" opacity="0.12"/>
<circle cx="390" cy="542" r="0.9" fill="#9FB4E8" opacity="0.18"/>
<circle cx="382" cy="19" r="0.8" fill="#9FB4E8" opacity="0.18"/>
<circle cx="100" cy="339" r="0.4" fill="#9FB4E8" opacity="0.09"/>
<circle cx="147" cy="83" r="0.6" fill="#9FB4E8" opacity="0.20"/>
<circle cx="215" cy="429" r="1.1" fill="#9FB4E8" opacity="0.15"/>
<circle cx="388" cy="538" r="1.0" fill="#9FB4E8" opacity="0.07"/>
<circle cx="233" cy="641" r="0.4" fill="#9FB4E8" opacity="0.21"/>
<circle cx="62" cy="398" r="0.5" fill="#9FB4E8" opacity="0.14"/>
<circle cx="238" cy="49" r="1.1" fill="#9FB4E8" opacity="0.13"/>
<circle cx="205" cy="505" r="0.7" fill="#9FB4E8" opacity="0.11"/>
<circle cx="255" cy="473" r="0.6" fill="#9FB4E8" opacity="0.17"/>
<circle cx="115" cy="12" r="0.6" fill="#9FB4E8" opacity="0.07"/>
<circle cx="61" cy="637" r="0.7" fill="#9FB4E8" opacity="0.20"/>
<circle cx="292" cy="42" r="1.1" fill="#9FB4E8" opacity="0.21"/>
<circle cx="29" cy="764" r="0.7" fill="#9FB4E8" opacity="0.14"/>
<circle cx="380" cy="206" r="0.8" fill="#9FB4E8" opacity="0.21"/>
<circle cx="282" cy="395" r="1.1" fill="#9FB4E8" opacity="0.19"/>
<circle cx="235" cy="97" r="0.8" fill="#9FB4E8" opacity="0.13"/>
<circle cx="79" cy="44" r="0.8" fill="#9FB4E8" opacity="0.08"/>
<circle cx="173" cy="564" r="0.7" fill="#9FB4E8" opacity="0.10"/>
<circle cx="227" cy="354" r="0.9" fill="#9FB4E8" opacity="0.14"/>
<circle cx="389" cy="804" r="0.9" fill="#9FB4E8" opacity="0.10"/>
<circle cx="44" cy="753" r="0.9" fill="#9FB4E8" opacity="0.16"/>
<circle cx="140" cy="229" r="0.9" fill="#9FB4E8" opacity="0.15"/>
<circle cx="231" cy="534" r="0.9" fill="#9FB4E8" opacity="0.09"/>
<path d="M195 668 Q154 601 88 560" stroke="#FFD98A" stroke-width="5.3340000000000005" fill="none" opacity="0.95" stroke-linecap="round"/>
<path d="M195 668 Q195 599 160 540" stroke="#E8A33D" stroke-width="1.9800000000000002" fill="none" opacity="0.16" stroke-linecap="round"/>
<path d="M195 668 Q239 615 250 548" stroke="#E8A33D" stroke-width="1.7400000000000002" fill="none" opacity="0.16" stroke-linecap="round"/>
<path d="M195 668 Q267 634 316 572" stroke="#E8A33D" stroke-width="1.548" fill="none" opacity="0.16" stroke-linecap="round"/>
<path d="M88 560 Q87 500 52 452" stroke="#FFD98A" stroke-width="3.948" fill="none" opacity="0.95" stroke-linecap="round"/>
<path d="M88 560 Q121 504 120 438" stroke="#E8A33D" stroke-width="1.6" fill="none" opacity="0.16" stroke-linecap="round"/>
<path d="M160 540 Q173 479 150 420" stroke="#E8A33D" stroke-width="1.6" fill="none" opacity="0.16" stroke-linecap="round"/>
<path d="M160 540 Q196 492 198 432" stroke="#E8A33D" stroke-width="1.39" fill="none" opacity="0.16" stroke-linecap="round"/>
<path d="M250 548 Q266 488 246 430" stroke="#E8A33D" stroke-width="1.46" fill="none" opacity="0.16" stroke-linecap="round"/>
<path d="M250 548 Q288 504 292 446" stroke="#E8A33D" stroke-width="1.32" fill="none" opacity="0.16" stroke-linecap="round"/>
<path d="M316 572 Q341 523 330 470" stroke="#E8A33D" stroke-width="1.25" fill="none" opacity="0.16" stroke-linecap="round"/>
<path d="M52 452 Q61 397 34 348" stroke="#E8A33D" stroke-width="1.4" fill="none" opacity="0.16" stroke-linecap="round"/>
<path d="M52 452 Q83 398 78 336" stroke="#FFD98A" stroke-width="2.688" fill="none" opacity="0.95" stroke-linecap="round"/>
<path d="M120 438 Q141 385 126 330" stroke="#E8A33D" stroke-width="1.28" fill="none" opacity="0.16" stroke-linecap="round"/>
<path d="M150 420 Q172 370 158 318" stroke="#E8A33D" stroke-width="1.22" fill="none" opacity="0.16" stroke-linecap="round"/>
<path d="M246 430 Q261 377 240 326" stroke="#E8A33D" stroke-width="1.1600000000000001" fill="none" opacity="0.16" stroke-linecap="round"/>
<path d="M246 430 Q276 389 272 338" stroke="#E8A33D" stroke-width="1.1" fill="none" opacity="0.16" stroke-linecap="round"/>
<circle cx="195" cy="668" r="22.400000000000002" fill="url(#glow)" opacity="0.50"/><circle cx="195" cy="668" r="7" fill="#FFD98A" opacity="0.60"/>
<circle cx="88" cy="560" r="24.32" fill="url(#glow)" opacity="1.00"/><circle cx="88" cy="560" r="7.6" fill="#FFD98A" opacity="1.00"/>
<circle cx="160" cy="540" r="19.840000000000003" fill="url(#glow)" opacity="0.30"/><circle cx="160" cy="540" r="6.2" fill="#FFD98A" opacity="0.40"/>
<circle cx="250" cy="548" r="17.919999999999998" fill="url(#glow)" opacity="0.30"/><circle cx="250" cy="548" r="5.6" fill="#FFD98A" opacity="0.40"/>
<circle cx="316" cy="572" r="16.384" fill="url(#glow)" opacity="0.30"/><circle cx="316" cy="572" r="5.12" fill="#FFD98A" opacity="0.40"/>
<circle cx="52" cy="452" r="17.216" fill="url(#glow)" opacity="1.00"/><circle cx="52" cy="452" r="5.38" fill="#FFD98A" opacity="1.00"/>
<circle cx="120" cy="438" r="15.040000000000001" fill="url(#glow)" opacity="0.25"/><circle cx="120" cy="438" r="4.7" fill="#FFD98A" opacity="0.35"/>
<circle cx="150" cy="420" r="15.040000000000001" fill="url(#glow)" opacity="0.25"/><circle cx="150" cy="420" r="4.7" fill="#FFD98A" opacity="0.35"/>
<circle cx="198" cy="432" r="13.408" fill="url(#glow)" opacity="0.25"/><circle cx="198" cy="432" r="4.1899999999999995" fill="#FFD98A" opacity="0.35"/>
<circle cx="246" cy="430" r="13.952000000000002" fill="url(#glow)" opacity="0.25"/><circle cx="246" cy="430" r="4.36" fill="#FFD98A" opacity="0.35"/>
<circle cx="292" cy="446" r="12.863999999999999" fill="url(#glow)" opacity="0.25"/><circle cx="292" cy="446" r="4.02" fill="#FFD98A" opacity="0.35"/>
<circle cx="330" cy="470" r="12.32" fill="url(#glow)" opacity="0.25"/><circle cx="330" cy="470" r="3.85" fill="#FFD98A" opacity="0.35"/>
<circle cx="34" cy="348" r="13.12" fill="url(#glow)" opacity="0.22"/><circle cx="34" cy="348" r="4.1" fill="#FFD98A" opacity="0.32"/>
<circle cx="78" cy="336" r="12.160000000000002" fill="url(#glowB)" opacity="1.00"/><circle cx="78" cy="336" r="3.8000000000000003" fill="#6DB8FF" opacity="1.00"/>
<circle cx="126" cy="330" r="12.160000000000002" fill="url(#glow)" opacity="0.22"/><circle cx="126" cy="330" r="3.8000000000000003" fill="#FFD98A" opacity="0.32"/>
<circle cx="158" cy="318" r="11.68" fill="url(#glow)" opacity="0.22"/><circle cx="158" cy="318" r="3.65" fill="#FFD98A" opacity="0.32"/>
<circle cx="240" cy="326" r="11.200000000000001" fill="url(#glow)" opacity="0.22"/><circle cx="240" cy="326" r="3.5" fill="#FFD98A" opacity="0.32"/>
<circle cx="272" cy="338" r="10.72" fill="url(#glowB)" opacity="0.22"/><circle cx="272" cy="338" r="3.35" fill="#6DB8FF" opacity="0.32"/>
<text x="24" y="648" font-family="Menlo, 'SF Mono', 'Courier New', monospace" font-size="8" fill="#FFD98A" letter-spacing="3" text-anchor="start" font-weight="normal" opacity="1">DECISION</text>
<text x="24" y="672" font-family="Georgia, 'Times New Roman', serif" font-size="20" fill="#F3ECD8" letter-spacing="0.4" text-anchor="start" font-weight="normal" opacity="1">She accepts the terms</text>
<text x="24" y="692" font-family="Menlo, 'SF Mono', 'Courier New', monospace" font-size="10.5" fill="rgba(230,234,248,.85)" letter-spacing="0.4" text-anchor="start" font-weight="normal" opacity="1">Confirm scope in writing before the kickoff call.</text>
<text x="24" y="714" font-family="Menlo, 'SF Mono', 'Courier New', monospace" font-size="13" fill="#FFD98A" letter-spacing="1" text-anchor="start" font-weight="normal" opacity="1">EV ≈ +$12k</text>
<text x="120" y="714" font-family="Menlo, 'SF Mono', 'Courier New', monospace" font-size="8.5" fill="rgba(200,205,230,.5)" letter-spacing="1.6" text-anchor="start" font-weight="normal" opacity="1">▸ DISTRIBUTION</text>
<rect x="252" y="700" rx="12" width="118" height="24" fill="rgba(159,232,255,.07)" stroke="#9FE8FF" stroke-opacity=".45"/><text x="311" y="716" font-family="Menlo, 'SF Mono', 'Courier New', monospace" font-size="8.5" fill="#9FE8FF" letter-spacing="1.4" text-anchor="middle" font-weight="normal" opacity="1">OPEN IN CHAT →</text>
<line x1="20" y1="734" x2="370" y2="734" stroke="#E8A33D" stroke-opacity=".18" stroke-width=".6"/><text x="195.0" y="750" font-family="Menlo, 'SF Mono', 'Courier New', monospace" font-size="8.5" fill="#FFD98A" letter-spacing="1.4" text-anchor="middle" font-weight="normal" opacity="1">ROOT › OPENING OFFER › SHE ACCEPTS</text>
<rect x="20" y="766" rx="19" width="350" height="38" fill="rgba(10,12,26,.7)" stroke="#E8A33D" stroke-opacity=".28"/><text x="38" y="790" font-family="Menlo, 'SF Mono', 'Courier New', monospace" font-size="11" fill="#F3ECD8" letter-spacing="1" text-anchor="start" font-weight="normal" opacity="0.45">speak or type to the radiant…</text>
<rect x="319" y="777" rx="3" width="6" height="11" fill="none" stroke="#9FE8FF" stroke-opacity="0.85" stroke-width="1.3"/><path d="M315.5 786 a6.5 6.5 0 0 0 13 0" fill="none" stroke="#9FE8FF" stroke-opacity="0.85" stroke-width="1.3"/><line x1="322" y1="792.5" x2="322" y2="796" stroke="#9FE8FF" stroke-opacity="0.85" stroke-width="1.3"/><circle cx="351" cy="785" r="11" fill="none" stroke="#9FE8FF" stroke-opacity=".5"/><text x="351" y="789" font-family="Menlo, 'SF Mono', 'Courier New', monospace" font-size="11" fill="#9FE8FF" letter-spacing="0" text-anchor="middle" font-weight="normal" opacity="0.8">↑</text>
</svg>