<svg xmlns="http://www.w3.org/2000/svg" width="390" height="844" viewBox="0 0 390 844">
<title>Canvas — hold to mark reality</title>
<defs>
  <radialGradient id="glow"><stop offset="0%" stop-color="#fff" stop-opacity=".95"/><stop offset="30%" stop-color="#FFD98A" stop-opacity=".5"/><stop offset="100%" stop-color="#FFD98A" stop-opacity="0"/></radialGradient>
  <radialGradient id="glowB"><stop offset="0%" stop-color="#fff" stop-opacity=".9"/><stop offset="30%" stop-color="#6DB8FF" stop-opacity=".5"/><stop offset="100%" stop-color="#6DB8FF" stop-opacity="0"/></radialGradient>
  <radialGradient id="glowE"><stop offset="0%" stop-color="#fff" stop-opacity=".9"/><stop offset="30%" stop-color="#FF6B5E" stop-opacity=".5"/><stop offset="100%" stop-color="#FF6B5E" stop-opacity="0"/></radialGradient>
  <linearGradient id="gauge" x1="0" y1="0" x2="1" y2="0"><stop offset="0%" stop-color="#FF6B5E"/><stop offset="50%" stop-color="#E8A33D"/><stop offset="100%" stop-color="#6DB8FF"/></linearGradient>
</defs>
<rect width="390" height="844" fill="#050510"/>
<circle cx="122" cy="463" r="1.0" fill="#9FB4E8" opacity="0.14"/>
<circle cx="102" cy="749" r="1.0" fill="#9FB4E8" opacity="0.11"/>
<circle cx="213" cy="808" r="0.7" fill="#9FB4E8" opacity="0.10"/>
<circle cx="19" cy="800" r="1.0" fill="#9FB4E8" opacity="0.12"/>
<circle cx="206" cy="435" r="0.6" fill="#9FB4E8" opacity="0.22"/>
<circle cx="256" cy="201" r="0.4" fill="#9FB4E8" opacity="0.14"/>
<circle cx="145" cy="672" r="0.9" fill="#9FB4E8" opacity="0.16"/>
<circle cx="61" cy="132" r="0.6" fill="#9FB4E8" opacity="0.10"/>
<circle cx="339" cy="436" r="0.8" fill="#9FB4E8" opacity="0.22"/>
<circle cx="104" cy="451" r="0.5" fill="#9FB4E8" opacity="0.18"/>
<circle cx="1" cy="693" r="1.0" fill="#9FB4E8" opacity="0.19"/>
<circle cx="32" cy="228" r="0.9" fill="#9FB4E8" opacity="0.08"/>
<circle cx="187" cy="396" r="1.1" fill="#9FB4E8" opacity="0.15"/>
<circle cx="334" cy="256" r="1.0" fill="#9FB4E8" opacity="0.13"/>
<circle cx="358" cy="77" r="1.0" fill="#9FB4E8" opacity="0.09"/>
<circle cx="212" cy="444" r="0.5" fill="#9FB4E8" opacity="0.19"/>
<circle cx="121" cy="262" r="0.5" fill="#9FB4E8" opacity="0.11"/>
<circle cx="182" cy="604" r="0.7" fill="#9FB4E8" opacity="0.17"/>
<circle cx="41" cy="333" r="0.7" fill="#9FB4E8" opacity="0.21"/>
<circle cx="324" cy="552" r="0.4" fill="#9FB4E8" opacity="0.12"/>
<circle cx="277" cy="200" r="0.8" fill="#9FB4E8" opacity="0.13"/>
<circle cx="4" cy="837" r="1.0" fill="#9FB4E8" opacity="0.09"/>
<circle cx="240" cy="245" r="0.7" fill="#9FB4E8" opacity="0.15"/>
<circle cx="116" cy="285" r="0.7" fill="#9FB4E8" opacity="0.17"/>
<circle cx="100" cy="169" r="0.9" fill="#9FB4E8" opacity="0.11"/>
<circle cx="369" cy="475" r="0.9" fill="#9FB4E8" opacity="0.11"/>
<circle cx="322" cy="78" r="0.5" fill="#9FB4E8" opacity="0.08"/>
<circle cx="264" cy="598" r="0.5" fill="#9FB4E8" opacity="0.12"/>
<circle cx="326" cy="500" r="0.5" fill="#9FB4E8" opacity="0.10"/>
<circle cx="61" cy="105" r="0.7" fill="#9FB4E8" opacity="0.07"/>
<circle cx="359" cy="360" r="0.8" fill="#9FB4E8" opacity="0.16"/>
<circle cx="299" cy="693" r="0.7" fill="#9FB4E8" opacity="0.11"/>
<circle cx="161" cy="13" r="0.7" fill="#9FB4E8" opacity="0.17"/>
<circle cx="383" cy="666" r="0.9" fill="#9FB4E8" opacity="0.16"/>
<circle cx="7" cy="279" r="0.6" fill="#9FB4E8" opacity="0.16"/>
<circle cx="41" cy="319" r="0.8" fill="#9FB4E8" opacity="0.19"/>
<circle cx="322" cy="516" r="0.5" fill="#9FB4E8" opacity="0.18"/>
<circle cx="352" cy="463" r="0.6" fill="#9FB4E8" opacity="0.14"/>
<circle cx="55" cy="602" r="1.1" fill="#9FB4E8" opacity="0.14"/>
<circle cx="279" cy="705" r="0.5" fill="#9FB4E8" opacity="0.21"/>
<circle cx="245" cy="167" r="0.5" fill="#9FB4E8" opacity="0.10"/>
<circle cx="225" cy="588" r="0.6" fill="#9FB4E8" opacity="0.21"/>
<path d="M195 668 Q154 601 88 560" stroke="#FFD98A" stroke-width="5.3340000000000005" fill="none" opacity="0.95" stroke-linecap="round"/>
<path d="M195 668 Q195 599 160 540" stroke="#E8A33D" stroke-width="1.9800000000000002" fill="none" opacity="0.16" stroke-linecap="round"/>
<path d="M195 668 Q239 615 250 548" stroke="#E8A33D" stroke-width="1.7400000000000002" fill="none" opacity="0.16" stroke-linecap="round"/>
<path d="M195 668 Q267 634 316 572" stroke="#E8A33D" stroke-width="1.548" fill="none" opacity="0.16" stroke-linecap="round"/>
<path d="M88 560 Q87 500 52 452" stroke="#E8A33D" stroke-width="1.88" fill="none" opacity="0.16" stroke-linecap="round"/>
<path d="M88 560 Q121 504 120 438" stroke="#E8A33D" stroke-width="1.6" fill="none" opacity="0.16" stroke-linecap="round"/>
<path d="M160 540 Q173 479 150 420" stroke="#E8A33D" stroke-width="1.6" fill="none" opacity="0.16" stroke-linecap="round"/>
<path d="M160 540 Q196 492 198 432" stroke="#E8A33D" stroke-width="1.39" fill="none" opacity="0.16" stroke-linecap="round"/>
<path d="M250 548 Q266 488 246 430" stroke="#E8A33D" stroke-width="1.46" fill="none" opacity="0.16" stroke-linecap="round"/>
<path d="M250 548 Q288 504 292 446" stroke="#E8A33D" stroke-width="1.32" fill="none" opacity="0.16" stroke-linecap="round"/>
<path d="M316 572 Q341 523 330 470" stroke="#E8A33D" stroke-width="1.25" fill="none" opacity="0.16" stroke-linecap="round"/>
<path d="M52 452 Q61 397 34 348" stroke="#E8A33D" stroke-width="1.4" fill="none" opacity="0.16" stroke-linecap="round"/>
<path d="M52 452 Q83 398 78 336" stroke="#E8A33D" stroke-width="1.28" fill="none" opacity="0.16" stroke-linecap="round"/>
<path d="M120 438 Q141 385 126 330" stroke="#E8A33D" stroke-width="1.28" fill="none" opacity="0.16" stroke-linecap="round"/>
<path d="M150 420 Q172 370 158 318" stroke="#E8A33D" stroke-width="1.22" fill="none" opacity="0.16" stroke-linecap="round"/>
<path d="M246 430 Q261 377 240 326" stroke="#E8A33D" stroke-width="1.1600000000000001" fill="none" opacity="0.16" stroke-linecap="round"/>
<path d="M246 430 Q276 389 272 338" stroke="#E8A33D" stroke-width="1.1" fill="none" opacity="0.16" stroke-linecap="round"/>
<circle cx="195" cy="668" r="22.400000000000002" fill="url(#glow)" opacity="0.50"/><circle cx="195" cy="668" r="7" fill="#FFD98A" opacity="0.60"/>
<circle cx="88" cy="560" r="24.32" fill="url(#glow)" opacity="1.00"/><circle cx="88" cy="560" r="7.6" fill="#FFD98A" opacity="1.00"/>
<circle cx="160" cy="540" r="19.840000000000003" fill="url(#glow)" opacity="0.30"/><circle cx="160" cy="540" r="6.2" fill="#FFD98A" opacity="0.40"/>
<circle cx="250" cy="548" r="17.919999999999998" fill="url(#glow)" opacity="0.30"/><circle cx="250" cy="548" r="5.6" fill="#FFD98A" opacity="0.40"/>
<circle cx="316" cy="572" r="16.384" fill="url(#glow)" opacity="0.30"/><circle cx="316" cy="572" r="5.12" fill="#FFD98A" opacity="0.40"/>
<circle cx="52" cy="452" r="17.216" fill="url(#glow)" opacity="0.25"/><circle cx="52" cy="452" r="5.38" fill="#FFD98A" opacity="0.35"/>
<circle cx="120" cy="438" r="15.040000000000001" fill="url(#glow)" opacity="0.25"/><circle cx="120" cy="438" r="4.7" fill="#FFD98A" opacity="0.35"/>
<circle cx="150" cy="420" r="15.040000000000001" fill="url(#glow)" opacity="0.25"/><circle cx="150" cy="420" r="4.7" fill="#FFD98A" opacity="0.35"/>
<circle cx="198" cy="432" r="13.408" fill="url(#glow)" opacity="0.25"/><circle cx="198" cy="432" r="4.1899999999999995" fill="#FFD98A" opacity="0.35"/>
<circle cx="246" cy="430" r="13.952000000000002" fill="url(#glow)" opacity="0.25"/><circle cx="246" cy="430" r="4.36" fill="#FFD98A" opacity="0.35"/>
<circle cx="292" cy="446" r="12.863999999999999" fill="url(#glow)" opacity="0.25"/><circle cx="292" cy="446" r="4.02" fill="#FFD98A" opacity="0.35"/>
<circle cx="330" cy="470" r="12.32" fill="url(#glow)" opacity="0.25"/><circle cx="330" cy="470" r="3.85" fill="#FFD98A" opacity="0.35"/>
<circle cx="34" cy="348" r="13.12" fill="url(#glow)" opacity="0.22"/><circle cx="34" cy="348" r="4.1" fill="#FFD98A" opacity="0.32"/>
<circle cx="78" cy="336" r="12.160000000000002" fill="url(#glowB)" opacity="0.22"/><circle cx="78" cy="336" r="3.8000000000000003" fill="#6DB8FF" opacity="0.32"/>
<circle cx="126" cy="330" r="12.160000000000002" fill="url(#glow)" opacity="0.22"/><circle cx="126" cy="330" r="3.8000000000000003" fill="#FFD98A" opacity="0.32"/>
<circle cx="158" cy="318" r="11.68" fill="url(#glow)" opacity="0.22"/><circle cx="158" cy="318" r="3.65" fill="#FFD98A" opacity="0.32"/>
<circle cx="240" cy="326" r="11.200000000000001" fill="url(#glow)" opacity="0.22"/><circle cx="240" cy="326" r="3.5" fill="#FFD98A" opacity="0.32"/>
<circle cx="272" cy="338" r="10.72" fill="url(#glowB)" opacity="0.22"/><circle cx="272" cy="338" r="3.35" fill="#6DB8FF" opacity="0.32"/>
<circle cx="52" cy="452" r="19.200000000000003" fill="url(#glow)" opacity="1.00"/><circle cx="52" cy="452" r="6" fill="#FFD98A" opacity="1.00"/>
<circle cx="52" cy="452" r="20" fill="none" stroke="rgba(220,224,240,.15)" stroke-width="2.5"/><path d="M52.0 432.0 A20 20 0 1 1 32.0 452.0" fill="none" stroke="#FFD98A" stroke-width="2.5" stroke-linecap="round"/><circle cx="52" cy="452" r="30" fill="none" stroke="#FFD98A" stroke-opacity=".18"/><circle cx="62" cy="466" r="13" fill="rgba(243,236,216,.12)" stroke="rgba(243,236,216,.3)"/><text x="90" y="456" font-family="Menlo, 'SF Mono', 'Courier New', monospace" font-size="9.5" fill="#FFD98A" letter-spacing="1.2" text-anchor="start" font-weight="normal" opacity="1">marking reality…</text>
</svg>