<svg xmlns="http://www.w3.org/2000/svg" width="390" height="844" viewBox="0 0 390 844">
<title>Voice — listening</title>
<defs>
  <radialGradient id="glow"><stop offset="0%" stop-color="#fff" stop-opacity=".95"/><stop offset="30%" stop-color="#FFD98A" stop-opacity=".5"/><stop offset="100%" stop-color="#FFD98A" stop-opacity="0"/></radialGradient>
  <radialGradient id="glowB"><stop offset="0%" stop-color="#fff" stop-opacity=".9"/><stop offset="30%" stop-color="#6DB8FF" stop-opacity=".5"/><stop offset="100%" stop-color="#6DB8FF" stop-opacity="0"/></radialGradient>
  <radialGradient id="glowE"><stop offset="0%" stop-color="#fff" stop-opacity=".9"/><stop offset="30%" stop-color="#FF6B5E" stop-opacity=".5"/><stop offset="100%" stop-color="#FF6B5E" stop-opacity="0"/></radialGradient>
  <linearGradient id="gauge" x1="0" y1="0" x2="1" y2="0"><stop offset="0%" stop-color="#FF6B5E"/><stop offset="50%" stop-color="#E8A33D"/><stop offset="100%" stop-color="#6DB8FF"/></linearGradient>
</defs>
<rect width="390" height="844" fill="#050510"/>
<circle cx="108" cy="540" r="0.5" fill="#9FB4E8" opacity="0.22"/>
<circle cx="172" cy="446" r="0.8" fill="#9FB4E8" opacity="0.07"/>
<circle cx="234" cy="240" r="0.6" fill="#9FB4E8" opacity="0.19"/>
<circle cx="34" cy="241" r="0.9" fill="#9FB4E8" opacity="0.10"/>
<circle cx="109" cy="463" r="0.5" fill="#9FB4E8" opacity="0.20"/>
<circle cx="385" cy="28" r="0.7" fill="#9FB4E8" opacity="0.18"/>
<circle cx="150" cy="784" r="0.7" fill="#9FB4E8" opacity="0.09"/>
<circle cx="217" cy="544" r="0.7" fill="#9FB4E8" opacity="0.17"/>
<circle cx="305" cy="436" r="0.8" fill="#9FB4E8" opacity="0.20"/>
<circle cx="267" cy="439" r="1.1" fill="#9FB4E8" opacity="0.09"/>
<circle cx="304" cy="139" r="0.8" fill="#9FB4E8" opacity="0.10"/>
<circle cx="172" cy="652" r="1.0" fill="#9FB4E8" opacity="0.19"/>
<circle cx="92" cy="413" r="0.6" fill="#9FB4E8" opacity="0.15"/>
<circle cx="195" cy="30" r="0.8" fill="#9FB4E8" opacity="0.17"/>
<circle cx="223" cy="737" r="0.5" fill="#9FB4E8" opacity="0.08"/>
<circle cx="7" cy="419" r="0.7" fill="#9FB4E8" opacity="0.13"/>
<circle cx="103" cy="674" r="0.5" fill="#9FB4E8" opacity="0.21"/>
<circle cx="222" cy="458" r="1.0" fill="#9FB4E8" opacity="0.10"/>
<circle cx="57" cy="262" r="0.4" fill="#9FB4E8" opacity="0.11"/>
<circle cx="242" cy="443" r="0.6" fill="#9FB4E8" opacity="0.15"/>
<circle cx="35" cy="693" r="0.5" fill="#9FB4E8" opacity="0.10"/>
<circle cx="62" cy="583" r="1.0" fill="#9FB4E8" opacity="0.19"/>
<circle cx="24" cy="347" r="0.7" fill="#9FB4E8" opacity="0.09"/>
<circle cx="379" cy="36" r="0.7" fill="#9FB4E8" opacity="0.18"/>
<circle cx="385" cy="122" r="0.7" fill="#9FB4E8" opacity="0.18"/>
<circle cx="15" cy="203" r="1.0" fill="#9FB4E8" opacity="0.08"/>
<circle cx="153" cy="252" r="0.7" fill="#9FB4E8" opacity="0.07"/>
<circle cx="13" cy="841" r="0.9" fill="#9FB4E8" opacity="0.18"/>
<circle cx="90" cy="214" r="0.8" fill="#9FB4E8" opacity="0.10"/>
<circle cx="180" cy="787" r="0.7" fill="#9FB4E8" opacity="0.11"/>
<circle cx="383" cy="516" r="0.4" fill="#9FB4E8" opacity="0.12"/>
<circle cx="253" cy="49" r="0.6" fill="#9FB4E8" opacity="0.17"/>
<circle cx="337" cy="499" r="1.0" fill="#9FB4E8" opacity="0.13"/>
<circle cx="153" cy="712" r="0.7" fill="#9FB4E8" opacity="0.19"/>
<circle cx="84" cy="293" r="0.5" fill="#9FB4E8" opacity="0.15"/>
<circle cx="64" cy="172" r="0.6" fill="#9FB4E8" opacity="0.13"/>
<circle cx="120" cy="377" r="1.1" fill="#9FB4E8" opacity="0.17"/>
<circle cx="336" cy="173" r="0.7" fill="#9FB4E8" opacity="0.07"/>
<circle cx="270" cy="306" r="0.6" fill="#9FB4E8" opacity="0.06"/>
<circle cx="71" cy="221" r="0.7" fill="#9FB4E8" opacity="0.21"/>
<circle cx="279" cy="227" r="0.7" fill="#9FB4E8" opacity="0.08"/>
<circle cx="365" cy="304" r="0.9" fill="#9FB4E8" opacity="0.18"/>
<path d="M195 668 Q154 601 88 560" stroke="#E8A33D" stroke-width="2.54" fill="none" opacity="0.50" stroke-linecap="round"/>
<path d="M195 668 Q195 599 160 540" stroke="#E8A33D" stroke-width="1.9800000000000002" fill="none" opacity="0.50" stroke-linecap="round"/>
<path d="M195 668 Q239 615 250 548" stroke="#E8A33D" stroke-width="1.7400000000000002" fill="none" opacity="0.50" stroke-linecap="round"/>
<path d="M195 668 Q267 634 316 572" stroke="#E8A33D" stroke-width="1.548" fill="none" opacity="0.50" stroke-linecap="round"/>
<path d="M88 560 Q87 500 52 452" stroke="#E8A33D" stroke-width="1.88" fill="none" opacity="0.50" stroke-linecap="round"/>
<path d="M88 560 Q121 504 120 438" stroke="#E8A33D" stroke-width="1.6" fill="none" opacity="0.50" stroke-linecap="round"/>
<path d="M160 540 Q173 479 150 420" stroke="#E8A33D" stroke-width="1.6" fill="none" opacity="0.50" stroke-linecap="round"/>
<path d="M160 540 Q196 492 198 432" stroke="#E8A33D" stroke-width="1.39" fill="none" opacity="0.50" stroke-linecap="round"/>
<path d="M250 548 Q266 488 246 430" stroke="#E8A33D" stroke-width="1.46" fill="none" opacity="0.50" stroke-linecap="round"/>
<path d="M250 548 Q288 504 292 446" stroke="#E8A33D" stroke-width="1.32" fill="none" opacity="0.50" stroke-linecap="round"/>
<path d="M316 572 Q341 523 330 470" stroke="#E8A33D" stroke-width="1.25" fill="none" opacity="0.50" stroke-linecap="round"/>
<path d="M52 452 Q61 397 34 348" stroke="#E8A33D" stroke-width="1.4" fill="none" opacity="0.50" stroke-linecap="round"/>
<path d="M52 452 Q83 398 78 336" stroke="#E8A33D" stroke-width="1.28" fill="none" opacity="0.50" stroke-linecap="round"/>
<path d="M120 438 Q141 385 126 330" stroke="#E8A33D" stroke-width="1.28" fill="none" opacity="0.50" stroke-linecap="round"/>
<path d="M150 420 Q172 370 158 318" stroke="#E8A33D" stroke-width="1.22" fill="none" opacity="0.50" stroke-linecap="round"/>
<path d="M246 430 Q261 377 240 326" stroke="#E8A33D" stroke-width="1.1600000000000001" fill="none" opacity="0.50" stroke-linecap="round"/>
<path d="M246 430 Q276 389 272 338" stroke="#E8A33D" stroke-width="1.1" fill="none" opacity="0.50" stroke-linecap="round"/>
<circle cx="195" cy="668" r="22.400000000000002" fill="url(#glow)" opacity="1.00"/><circle cx="195" cy="668" r="7" fill="#FFD98A" opacity="1.00"/>
<circle cx="88" cy="560" r="24.32" fill="url(#glow)" opacity="0.90"/><circle cx="88" cy="560" r="7.6" fill="#FFD98A" opacity="1.00"/>
<circle cx="160" cy="540" r="19.840000000000003" fill="url(#glow)" opacity="0.90"/><circle cx="160" cy="540" r="6.2" fill="#FFD98A" opacity="1.00"/>
<circle cx="250" cy="548" r="17.919999999999998" fill="url(#glow)" opacity="0.90"/><circle cx="250" cy="548" r="5.6" fill="#FFD98A" opacity="1.00"/>
<circle cx="316" cy="572" r="16.384" fill="url(#glow)" opacity="0.90"/><circle cx="316" cy="572" r="5.12" fill="#FFD98A" opacity="1.00"/>
<circle cx="52" cy="452" r="17.216" fill="url(#glow)" opacity="0.80"/><circle cx="52" cy="452" r="5.38" fill="#FFD98A" opacity="0.90"/>
<circle cx="120" cy="438" r="15.040000000000001" fill="url(#glow)" opacity="0.80"/><circle cx="120" cy="438" r="4.7" fill="#FFD98A" opacity="0.90"/>
<circle cx="150" cy="420" r="15.040000000000001" fill="url(#glow)" opacity="0.80"/><circle cx="150" cy="420" r="4.7" fill="#FFD98A" opacity="0.90"/>
<circle cx="198" cy="432" r="13.408" fill="url(#glow)" opacity="0.80"/><circle cx="198" cy="432" r="4.1899999999999995" fill="#FFD98A" opacity="0.90"/>
<circle cx="246" cy="430" r="13.952000000000002" fill="url(#glow)" opacity="0.80"/><circle cx="246" cy="430" r="4.36" fill="#FFD98A" opacity="0.90"/>
<circle cx="292" cy="446" r="12.863999999999999" fill="url(#glow)" opacity="0.80"/><circle cx="292" cy="446" r="4.02" fill="#FFD98A" opacity="0.90"/>
<circle cx="330" cy="470" r="12.32" fill="url(#glow)" opacity="0.80"/><circle cx="330" cy="470" r="3.85" fill="#FFD98A" opacity="0.90"/>
<circle cx="34" cy="348" r="13.12" fill="url(#glow)" opacity="0.75"/><circle cx="34" cy="348" r="4.1" fill="#FFD98A" opacity="0.85"/>
<circle cx="78" cy="336" r="12.160000000000002" fill="url(#glowB)" opacity="0.75"/><circle cx="78" cy="336" r="3.8000000000000003" fill="#6DB8FF" opacity="0.85"/>
<circle cx="126" cy="330" r="12.160000000000002" fill="url(#glow)" opacity="0.75"/><circle cx="126" cy="330" r="3.8000000000000003" fill="#FFD98A" opacity="0.85"/>
<circle cx="158" cy="318" r="11.68" fill="url(#glow)" opacity="0.75"/><circle cx="158" cy="318" r="3.65" fill="#FFD98A" opacity="0.85"/>
<circle cx="240" cy="326" r="11.200000000000001" fill="url(#glow)" opacity="0.75"/><circle cx="240" cy="326" r="3.5" fill="#FFD98A" opacity="0.85"/>
<circle cx="272" cy="338" r="10.72" fill="url(#glowB)" opacity="0.75"/><circle cx="272" cy="338" r="3.35" fill="#6DB8FF" opacity="0.85"/>
<circle cx="195.0" cy="700" r="54" fill="none" stroke="#9FE8FF" stroke-opacity=".14"/><circle cx="195.0" cy="700" r="38" fill="none" stroke="#9FE8FF" stroke-opacity=".28"/><circle cx="195.0" cy="700" r="24" fill="rgba(159,232,255,.1)" stroke="#9FE8FF" stroke-opacity=".7"/><rect x="192.0" y="692" rx="3" width="6" height="11" fill="none" stroke="#9FE8FF" stroke-opacity="1" stroke-width="1.3"/><path d="M188.5 701 a6.5 6.5 0 0 0 13 0" fill="none" stroke="#9FE8FF" stroke-opacity="1" stroke-width="1.3"/><line x1="195.0" y1="707.5" x2="195.0" y2="711" stroke="#9FE8FF" stroke-opacity="1" stroke-width="1.3"/><polyline points="80,770.0 90,774.2057712238002 100,774.8086285953934 110,768.4072130449321 120,766.5685635163647 130,767.4157330530235 140,773.1628925694424 150,775.8665862284101 160,772.7330606181861 170,767.9360685116812 180,765.2348949118845 190,767.3212676578898 200,775.9446269672786 210,773.5018110583833 220,771.1273956413753 230,762.735524478808 240,764.3780585621554 250,769.3108357588915 260,773.7607285023233 270,774.2676279487245 280,769.9471914381769 290,761.0643031761497 300,767.1956526546152 310,770.6285381116725" fill="none" stroke="#9FE8FF" stroke-opacity=".55" stroke-width="1.4"/><text x="195.0" y="806" font-family="Menlo, 'SF Mono', 'Courier New', monospace" font-size="9.5" fill="rgba(230,234,248,.75)" letter-spacing="0.4" text-anchor="middle" font-weight="normal" opacity="1">“…she came back at forty, and honestly the timeline—”</text>
<text x="195.0" y="826" font-family="Menlo, 'SF Mono', 'Courier New', monospace" font-size="8" fill="#9FE8FF" letter-spacing="2" text-anchor="middle" font-weight="normal" opacity="0.7">LISTENING · release to send</text>
</svg>